<mxfile host="app.diagrams.net" modified="2023-06-29T03:08:28.910Z" agent="Mozilla/5.0 (Windows NT 10.0; Win64; x64) AppleWebKit/537.36 (KHTML, like Gecko) Chrome/114.0.0.0 Safari/537.36" etag="GpH3CQcVmmNoC_RCbXKk" version="21.5.1" type="device">
  <diagram name="페이지-1" id="u5WIis7VqzgzTAiWv02S">
    <mxGraphModel dx="1717" dy="401" grid="1" gridSize="10" guides="1" tooltips="1" connect="1" arrows="1" fold="1" page="1" pageScale="1" pageWidth="827" pageHeight="1169" math="0" shadow="0">
      <root>
        <mxCell id="0" />
        <mxCell id="1" parent="0" />
        <mxCell id="FvNJywlotHBPxnR-g7FC-1" value="구구단을 만들자" style="rounded=1;whiteSpace=wrap;html=1;" vertex="1" parent="1">
          <mxGeometry x="40" y="40" width="120" height="60" as="geometry" />
        </mxCell>
        <mxCell id="FvNJywlotHBPxnR-g7FC-5" style="edgeStyle=orthogonalEdgeStyle;rounded=0;orthogonalLoop=1;jettySize=auto;html=1;exitX=0.5;exitY=1;exitDx=0;exitDy=0;entryX=0.5;entryY=0;entryDx=0;entryDy=0;" edge="1" parent="1" source="FvNJywlotHBPxnR-g7FC-3" target="FvNJywlotHBPxnR-g7FC-4">
          <mxGeometry relative="1" as="geometry" />
        </mxCell>
        <mxCell id="FvNJywlotHBPxnR-g7FC-3" value="2개의 변수가 필요" style="rounded=0;whiteSpace=wrap;html=1;" vertex="1" parent="1">
          <mxGeometry x="40" y="120" width="120" height="60" as="geometry" />
        </mxCell>
        <mxCell id="FvNJywlotHBPxnR-g7FC-7" style="edgeStyle=orthogonalEdgeStyle;rounded=0;orthogonalLoop=1;jettySize=auto;html=1;exitX=0.5;exitY=1;exitDx=0;exitDy=0;entryX=0.5;entryY=0;entryDx=0;entryDy=0;" edge="1" parent="1" source="FvNJywlotHBPxnR-g7FC-4" target="FvNJywlotHBPxnR-g7FC-6">
          <mxGeometry relative="1" as="geometry" />
        </mxCell>
        <mxCell id="FvNJywlotHBPxnR-g7FC-4" value="let num1 = 2;&lt;br&gt;let num2 = 2;" style="rounded=0;whiteSpace=wrap;html=1;" vertex="1" parent="1">
          <mxGeometry x="40" y="220" width="120" height="60" as="geometry" />
        </mxCell>
        <mxCell id="FvNJywlotHBPxnR-g7FC-10" style="edgeStyle=orthogonalEdgeStyle;rounded=0;orthogonalLoop=1;jettySize=auto;html=1;exitX=0.5;exitY=1;exitDx=0;exitDy=0;entryX=0.5;entryY=0;entryDx=0;entryDy=0;" edge="1" parent="1" source="FvNJywlotHBPxnR-g7FC-6" target="FvNJywlotHBPxnR-g7FC-9">
          <mxGeometry relative="1" as="geometry" />
        </mxCell>
        <mxCell id="FvNJywlotHBPxnR-g7FC-6" value="console.log(num1 + &quot; * &quot; + num2 + &quot; = &quot; + num1 * num2)" style="rounded=0;whiteSpace=wrap;html=1;" vertex="1" parent="1">
          <mxGeometry x="40" y="320" width="360" height="60" as="geometry" />
        </mxCell>
        <mxCell id="FvNJywlotHBPxnR-g7FC-8" value="&quot;3 * 2 = 6&quot;" style="rounded=1;whiteSpace=wrap;html=1;" vertex="1" parent="1">
          <mxGeometry x="400" y="320" width="120" height="60" as="geometry" />
        </mxCell>
        <mxCell id="FvNJywlotHBPxnR-g7FC-13" style="edgeStyle=orthogonalEdgeStyle;rounded=0;orthogonalLoop=1;jettySize=auto;html=1;exitX=0.5;exitY=1;exitDx=0;exitDy=0;entryX=0.5;entryY=0;entryDx=0;entryDy=0;" edge="1" parent="1" source="FvNJywlotHBPxnR-g7FC-9" target="FvNJywlotHBPxnR-g7FC-12">
          <mxGeometry relative="1" as="geometry" />
        </mxCell>
        <mxCell id="FvNJywlotHBPxnR-g7FC-9" value="num2 += 1;" style="rounded=0;whiteSpace=wrap;html=1;" vertex="1" parent="1">
          <mxGeometry x="40" y="420" width="120" height="60" as="geometry" />
        </mxCell>
        <mxCell id="FvNJywlotHBPxnR-g7FC-16" style="edgeStyle=orthogonalEdgeStyle;rounded=0;orthogonalLoop=1;jettySize=auto;html=1;exitX=0.5;exitY=1;exitDx=0;exitDy=0;entryX=0.5;entryY=0;entryDx=0;entryDy=0;" edge="1" parent="1" source="FvNJywlotHBPxnR-g7FC-12" target="FvNJywlotHBPxnR-g7FC-18">
          <mxGeometry relative="1" as="geometry">
            <mxPoint x="80.14285714285711" y="640" as="targetPoint" />
          </mxGeometry>
        </mxCell>
        <mxCell id="FvNJywlotHBPxnR-g7FC-17" value="False" style="edgeLabel;html=1;align=center;verticalAlign=middle;resizable=0;points=[];" vertex="1" connectable="0" parent="FvNJywlotHBPxnR-g7FC-16">
          <mxGeometry x="-0.3747" relative="1" as="geometry">
            <mxPoint as="offset" />
          </mxGeometry>
        </mxCell>
        <mxCell id="FvNJywlotHBPxnR-g7FC-22" style="edgeStyle=orthogonalEdgeStyle;rounded=0;orthogonalLoop=1;jettySize=auto;html=1;exitX=0;exitY=0.5;exitDx=0;exitDy=0;entryX=0;entryY=0.5;entryDx=0;entryDy=0;" edge="1" parent="1" source="FvNJywlotHBPxnR-g7FC-12" target="FvNJywlotHBPxnR-g7FC-6">
          <mxGeometry relative="1" as="geometry" />
        </mxCell>
        <mxCell id="FvNJywlotHBPxnR-g7FC-23" value="True" style="edgeLabel;html=1;align=center;verticalAlign=middle;resizable=0;points=[];" vertex="1" connectable="0" parent="FvNJywlotHBPxnR-g7FC-22">
          <mxGeometry x="-0.0693" y="-1" relative="1" as="geometry">
            <mxPoint as="offset" />
          </mxGeometry>
        </mxCell>
        <mxCell id="FvNJywlotHBPxnR-g7FC-12" value="num2 &amp;lt; 10" style="rhombus;whiteSpace=wrap;html=1;" vertex="1" parent="1">
          <mxGeometry x="40" y="520" width="120" height="80" as="geometry" />
        </mxCell>
        <mxCell id="FvNJywlotHBPxnR-g7FC-24" style="edgeStyle=orthogonalEdgeStyle;rounded=0;orthogonalLoop=1;jettySize=auto;html=1;exitX=0;exitY=0.5;exitDx=0;exitDy=0;entryX=0;entryY=0.25;entryDx=0;entryDy=0;" edge="1" parent="1" source="FvNJywlotHBPxnR-g7FC-25" target="FvNJywlotHBPxnR-g7FC-6">
          <mxGeometry relative="1" as="geometry">
            <Array as="points">
              <mxPoint y="780" />
              <mxPoint y="335" />
            </Array>
          </mxGeometry>
        </mxCell>
        <mxCell id="FvNJywlotHBPxnR-g7FC-27" value="True" style="edgeLabel;html=1;align=center;verticalAlign=middle;resizable=0;points=[];" vertex="1" connectable="0" parent="FvNJywlotHBPxnR-g7FC-24">
          <mxGeometry x="-0.1859" relative="1" as="geometry">
            <mxPoint as="offset" />
          </mxGeometry>
        </mxCell>
        <mxCell id="FvNJywlotHBPxnR-g7FC-26" style="edgeStyle=orthogonalEdgeStyle;rounded=0;orthogonalLoop=1;jettySize=auto;html=1;exitX=0.5;exitY=1;exitDx=0;exitDy=0;entryX=0.5;entryY=0;entryDx=0;entryDy=0;" edge="1" parent="1" source="FvNJywlotHBPxnR-g7FC-18" target="FvNJywlotHBPxnR-g7FC-25">
          <mxGeometry relative="1" as="geometry" />
        </mxCell>
        <mxCell id="FvNJywlotHBPxnR-g7FC-18" value="num1 += 1;&lt;br&gt;num2 = 2;" style="rounded=0;whiteSpace=wrap;html=1;" vertex="1" parent="1">
          <mxGeometry x="40" y="640" width="120" height="60" as="geometry" />
        </mxCell>
        <mxCell id="FvNJywlotHBPxnR-g7FC-20" value="num2 == 10" style="rounded=1;whiteSpace=wrap;html=1;" vertex="1" parent="1">
          <mxGeometry x="160" y="640" width="120" height="60" as="geometry" />
        </mxCell>
        <mxCell id="FvNJywlotHBPxnR-g7FC-28" style="edgeStyle=orthogonalEdgeStyle;rounded=0;orthogonalLoop=1;jettySize=auto;html=1;exitX=0.5;exitY=1;exitDx=0;exitDy=0;" edge="1" parent="1" source="FvNJywlotHBPxnR-g7FC-25" target="FvNJywlotHBPxnR-g7FC-29">
          <mxGeometry relative="1" as="geometry">
            <mxPoint x="100.24137931034488" y="880" as="targetPoint" />
          </mxGeometry>
        </mxCell>
        <mxCell id="FvNJywlotHBPxnR-g7FC-30" value="False" style="edgeLabel;html=1;align=center;verticalAlign=middle;resizable=0;points=[];" vertex="1" connectable="0" parent="FvNJywlotHBPxnR-g7FC-28">
          <mxGeometry x="-0.3259" relative="1" as="geometry">
            <mxPoint as="offset" />
          </mxGeometry>
        </mxCell>
        <mxCell id="FvNJywlotHBPxnR-g7FC-25" value="num1 &amp;lt; 10" style="rhombus;whiteSpace=wrap;html=1;" vertex="1" parent="1">
          <mxGeometry x="40" y="740" width="120" height="80" as="geometry" />
        </mxCell>
        <mxCell id="FvNJywlotHBPxnR-g7FC-29" value="끝" style="rounded=0;whiteSpace=wrap;html=1;" vertex="1" parent="1">
          <mxGeometry x="40.00137931034488" y="860" width="120" height="60" as="geometry" />
        </mxCell>
      </root>
    </mxGraphModel>
  </diagram>
</mxfile>
